<svg width="28" height="29" viewBox="0 0 28 29" fill="none" xmlns="http://www.w3.org/2000/svg">
<path d="M0 5.75C0 2.85156 2.35156 0.5 5.25 0.5C8.14844 0.5 10.5 2.85156 10.5 5.75V7.5H17.5V5.75C17.5 2.85156 19.8516 0.5 22.75 0.5C25.6484 0.5 28 2.85156 28 5.75C28 8.64844 25.6484 11 22.75 11H21V18H22.75C25.6484 18 28 20.3516 28 23.25C28 26.1484 25.6484 28.5 22.75 28.5C19.8516 28.5 17.5 26.1484 17.5 23.25V21.5H10.5V23.25C10.5 26.1484 8.14844 28.5 5.25 28.5C2.35156 28.5 0 26.1484 0 23.25C0 20.3516 2.35156 18 5.25 18H7V11H5.25C2.35156 11 0 8.64844 0 5.75ZM7 7.5V5.75C7 4.82031 6.17969 4 5.25 4C4.26562 4 3.5 4.82031 3.5 5.75C3.5 6.73438 4.26562 7.5 5.25 7.5H7ZM10.5 18H17.5V11H10.5V18ZM7 21.5H5.25C4.26562 21.5 3.5 22.3203 3.5 23.25C3.5 24.2344 4.26562 25 5.25 25C6.17969 25 7 24.2344 7 23.25V21.5ZM21 21.5V23.25C21 24.2344 21.7656 25 22.75 25C23.6797 25 24.5 24.2344 24.5 23.25C24.5 22.3203 23.6797 21.5 22.75 21.5H21ZM21 7.5H22.75C23.6797 7.5 24.5 6.73438 24.5 5.75C24.5 4.82031 23.6797 4 22.75 4C21.7656 4 21 4.82031 21 5.75V7.5Z" fill="#21AF27"/>
</svg>
