<svg width="30" height="29" viewBox="0 0 30 29" fill="none" xmlns="http://www.w3.org/2000/svg">
<path d="M15.875 0.5H20.25C20.6875 0.5 21.125 0.9375 21.125 1.375V4.875C21.125 5.36719 20.6875 5.75 20.25 5.75H15.875V7.5H26.375C27.3047 7.5 28.125 8.32031 28.125 9.25C28.125 10.2344 27.3047 11 26.375 11H3.625C2.64062 11 1.875 10.2344 1.875 9.25C1.875 8.32031 2.64062 7.5 3.625 7.5H14.125V1.375C14.125 0.9375 14.5078 0.5 15 0.5H15.875ZM4.5 12.75H8V23.25H10.1875V12.75H13.6875V23.25H16.3125V12.75H19.8125V23.25H22V12.75H25.5V23.5234C25.5 23.5234 25.5547 23.5234 25.5547 23.5781L28.1797 25.3281C28.8359 25.7656 29.1094 26.5312 28.8906 27.2969C28.6719 28.0078 28.0156 28.5 27.25 28.5H2.75C1.92969 28.5 1.27344 28.0078 1.05469 27.2969C0.835938 26.5312 1.10938 25.7656 1.76562 25.3281L4.39062 23.5781C4.39062 23.5234 4.44531 23.5234 4.5 23.5234V12.75Z" fill="#21AF27"/>
</svg>
