<svg width="29" height="29" viewBox="0 0 29 29" fill="none" xmlns="http://www.w3.org/2000/svg">
<path d="M24.5 7.5C23.2422 7.5 22.0938 6.84375 21.4375 5.75C20.8359 4.71094 20.8359 3.34375 21.4375 2.25C22.0938 1.21094 23.2422 0.5 24.5 0.5C25.7031 0.5 26.8516 1.21094 27.5078 2.25C28.1094 3.34375 28.1094 4.71094 27.5078 5.75C26.8516 6.84375 25.7031 7.5 24.5 7.5ZM7 2.25H14V1.48438C14 0.9375 14.4375 0.5 14.9297 0.5C15.1484 0.5 15.3672 0.609375 15.5312 0.71875L18.8672 3.34375C19.0859 3.50781 19.25 3.72656 19.25 4C19.25 4.27344 19.0859 4.54688 18.8672 4.71094L15.5312 7.33594C15.3672 7.44531 15.1484 7.5 14.9297 7.5C14.4375 7.5 14 7.0625 14 6.57031V5.75H7C5.03125 5.75 3.5 7.33594 3.5 9.25C3.5 11.2188 5.03125 12.75 7 12.75H21C24.8281 12.75 28 15.9219 28 19.75C28 23.1953 25.5391 26.0391 22.3125 26.6406C21.7656 27.7344 20.5625 28.5 19.25 28.5C17.2812 28.5 15.75 26.9688 15.75 25C15.75 23.0859 17.2812 21.5 19.25 21.5C20.4531 21.5 21.4922 22.1562 22.1484 23.0859C23.5156 22.5938 24.5 21.2812 24.5 19.75C24.5 17.8359 22.9141 16.25 21 16.25H7C3.11719 16.25 0 13.1328 0 9.25C0 5.42188 3.11719 2.25 7 2.25ZM6.50781 23.25H8.75V22.4844C8.75 21.9375 9.1875 21.5 9.67969 21.5C9.89844 21.5 10.1172 21.6094 10.2812 21.7188L13.6172 24.3438C13.8359 24.5078 14 24.7266 14 25C14 25.2734 13.8359 25.5469 13.6172 25.7109L10.2812 28.3359C10.1172 28.4453 9.89844 28.5 9.67969 28.5C9.1875 28.5 8.75 28.0625 8.75 27.5703V26.75H6.50781C5.90625 27.8438 4.75781 28.5 3.5 28.5C1.53125 28.5 0 26.9688 0 25C0 23.0859 1.53125 21.5 3.5 21.5C4.75781 21.5 5.90625 22.2109 6.50781 23.25Z" fill="#21AF27"/>
</svg>
