<svg width="20" height="19" viewBox="0 0 20 19" fill="none" xmlns="http://www.w3.org/2000/svg">
<path d="M20 15.75C20 17.1562 18.8672 18.25 17.5 18.25H2.5C1.09375 18.25 0 17.1562 0 15.75V3.25C0 1.88281 1.09375 0.75 2.5 0.75H7.5C8.28125 0.75 9.02344 1.14062 9.49219 1.76562L10.2344 2.78125C10.4688 3.09375 10.8203 3.25 11.25 3.25H17.5C18.8672 3.25 20 4.38281 20 5.75V15.75ZM10.9375 7.3125C10.9375 6.80469 10.5078 6.375 10 6.375C9.45312 6.375 9.0625 6.80469 9.0625 7.3125V11.3359L7.85156 10.125C7.46094 9.73438 6.875 9.73438 6.52344 10.125C6.13281 10.4766 6.13281 11.0625 6.52344 11.4141L9.33594 14.2266C9.6875 14.6172 10.2734 14.6172 10.6641 14.2266L13.4766 11.4141C13.8281 11.0625 13.8281 10.4766 13.4766 10.125C13.0859 9.73438 12.5 9.73438 12.1484 10.125L10.9375 11.3359V7.3125Z" fill="#21AF27"/>
</svg>
