<svg width="157" height="157" viewBox="0 0 157 157" fill="none" xmlns="http://www.w3.org/2000/svg">
<g clip-path="url(#clip0_2477_44)">
<path d="M76.0778 0C72.0003 0 68.7244 3.27592 68.7244 7.35338V10.6293C44.0854 14.7416 24.6041 34.2229 20.4918 58.8619H19.6554C14.2188 58.8619 9.82764 63.2531 9.82764 68.6897C9.82764 74.1263 14.2188 78.5174 19.6554 78.5174H137.414C142.851 78.5174 147.242 74.1263 147.242 68.6897C147.242 63.2531 142.851 58.8619 137.414 58.8619H136.578C132.465 34.2229 112.984 14.7416 88.3451 10.6293V7.35338C88.3451 3.27592 85.0692 0 80.9917 0L76.0778 0Z" fill="#AAB0BC"/>
<g opacity="0.4">
<path d="M39.2762 78.4825H19.6556V128.876C19.4813 128.98 19.2722 129.085 19.098 129.224L4.39119 139.052C0.801621 141.457 -0.836337 145.918 0.418269 150.065C1.67288 154.212 5.50639 157.035 9.82781 157.035H147.207C151.529 157.035 155.327 154.212 156.582 150.065C157.836 145.918 156.233 141.457 152.609 139.052L137.902 129.224C137.728 129.085 137.519 129.015 137.345 128.876V78.4825H117.759V127.552H105.492V78.4825H85.8709V127.552H71.1641V78.4825H51.5435V127.552H39.2762V78.4825Z" fill="#AAB0BC"/>
</g>
</g>
<defs>
<clipPath id="clip0_2477_44">
<rect width="157" height="157" fill="white"/>
</clipPath>
</defs>
</svg>
