<svg width="28" height="25" viewBox="0 0 28 25" fill="none" xmlns="http://www.w3.org/2000/svg">
<path d="M3.5 0.25H24.5C26.4141 0.25 28 1.83594 28 3.75V7.25C28 9.21875 26.4141 10.75 24.5 10.75H3.5C1.53125 10.75 0 9.21875 0 7.25V3.75C0 1.83594 1.53125 0.25 3.5 0.25ZM18.8125 4.1875C18.0469 4.1875 17.5 4.78906 17.5 5.5C17.5 6.26562 18.0469 6.8125 18.8125 6.8125C19.5234 6.8125 20.125 6.26562 20.125 5.5C20.125 4.78906 19.5234 4.1875 18.8125 4.1875ZM21.4375 5.5C21.4375 6.26562 21.9844 6.8125 22.75 6.8125C23.4609 6.8125 24.0625 6.26562 24.0625 5.5C24.0625 4.78906 23.4609 4.1875 22.75 4.1875C21.9844 4.1875 21.4375 4.78906 21.4375 5.5ZM3.5 14.25H24.5C26.4141 14.25 28 15.8359 28 17.75V21.25C28 23.2188 26.4141 24.75 24.5 24.75H3.5C1.53125 24.75 0 23.2188 0 21.25V17.75C0 15.8359 1.53125 14.25 3.5 14.25ZM18.8125 18.1875C18.0469 18.1875 17.5 18.7891 17.5 19.5C17.5 20.2656 18.0469 20.8125 18.8125 20.8125C19.5234 20.8125 20.125 20.2656 20.125 19.5C20.125 18.7891 19.5234 18.1875 18.8125 18.1875ZM21.875 19.5C21.875 20.2656 22.4219 20.8125 23.1875 20.8125C23.8984 20.8125 24.5 20.2656 24.5 19.5C24.5 18.7891 23.8984 18.1875 23.1875 18.1875C22.4219 18.1875 21.875 18.7891 21.875 19.5Z" fill="#21AF27"/>
</svg>
