<svg width="29" height="29" viewBox="0 0 29 29" fill="none" xmlns="http://www.w3.org/2000/svg">
<path d="M13.4375 0.828125C14.2578 0.445312 15.1875 0.445312 16.0078 0.828125L27.9844 6.35156C28.4219 6.57031 28.75 7.00781 28.75 7.5C28.75 8.04688 28.4219 8.48438 27.9844 8.70312L16.0078 14.2266C15.1875 14.6094 14.2578 14.6094 13.4375 14.2266L1.46094 8.70312C1.02344 8.48438 0.75 8.04688 0.75 7.5C0.75 7.00781 1.02344 6.57031 1.46094 6.35156L13.4375 0.828125ZM25.0312 11.9844L27.9844 13.3516C28.4219 13.5703 28.75 14.0078 28.75 14.5C28.75 15.0469 28.4219 15.4844 27.9844 15.7031L16.0078 21.2266C15.1875 21.6094 14.2578 21.6094 13.4375 21.2266L1.46094 15.7031C1.02344 15.4844 0.75 15.0469 0.75 14.5C0.75 14.0078 1.02344 13.5703 1.46094 13.3516L4.41406 11.9844L12.7266 15.8125C13.9844 16.4141 15.4609 16.4141 16.7188 15.8125L25.0312 11.9844ZM16.7188 22.8125L25.0312 18.9844L27.9844 20.3516C28.4219 20.5703 28.75 21.0078 28.75 21.5C28.75 22.0469 28.4219 22.4844 27.9844 22.7031L16.0078 28.2266C15.1875 28.6094 14.2578 28.6094 13.4375 28.2266L1.46094 22.7031C1.02344 22.4844 0.75 22.0469 0.75 21.5C0.75 21.0078 1.02344 20.5703 1.46094 20.3516L4.41406 18.9844L12.7266 22.8125C13.9844 23.4141 15.4609 23.4141 16.7188 22.8125Z" fill="#21AF27"/>
</svg>
