<svg width="33" height="29" viewBox="0 0 33 29" fill="none" xmlns="http://www.w3.org/2000/svg">
<path d="M7.5 0.5H19.8594C20.7891 0.5 21.7188 0.882812 22.375 1.53906L23.9609 3.125C24.6172 3.78125 25 4.71094 25 5.64062V9.25H21.5V5.64062L19.8594 4H7.5V9.25H4V4C4 2.08594 5.53125 0.5 7.5 0.5ZM4 11H16.25C14.1172 12.6406 12.75 15.1562 12.75 18C12.75 18.6016 12.8047 19.2031 12.9141 19.75H7.5V20.625V21.5V25H16.25C17.6719 26.1484 19.5312 26.75 21.5 26.75C22.4297 26.75 23.3594 26.6406 24.2344 26.3125L24.5625 26.6953C23.9609 27.7891 22.8125 28.5547 21.5 28.5547H7.5C5.53125 28.5547 4 26.9688 4 25.0547V21.5H2.25C1.26562 21.5 0.5 20.7344 0.5 19.75V14.5C0.5 12.5859 2.03125 11 4 11ZM21.5 22.4297C23.0312 22.4297 24.4531 21.5547 25.2734 20.2422C26.0391 18.875 26.0391 17.1797 25.2734 15.8672C24.4531 14.5 23.0312 13.6797 21.5 13.6797C19.9141 13.6797 18.4922 14.5 17.6719 15.8672C16.9062 17.1797 16.9062 18.875 17.6719 20.2422C18.4922 21.5547 19.9141 22.4297 21.5 22.4297ZM21.5 25.0547C17.6172 25.0547 14.5 21.8828 14.5 18.0547C14.5 14.1719 17.6172 11.0547 21.5 11.0547C25.3281 11.0547 28.5 14.1719 28.5 18.0547C28.5 19.4766 28.0078 20.8438 27.2422 21.9922L31.6172 26.3125C32.1094 26.8047 32.1094 27.625 31.6172 28.1719C31.0703 28.6641 30.25 28.6641 29.7578 28.1719L25.3828 23.7969C24.2891 24.5625 22.9219 25.0547 21.5 25.0547Z" fill="#21AF27"/>
</svg>
