<svg width="27" height="26" viewBox="0 0 27 26" fill="none" xmlns="http://www.w3.org/2000/svg">
<path d="M6 10.75C4.08594 10.75 2.39062 9.76562 1.40625 8.125C0.476562 6.53906 0.476562 4.51562 1.40625 2.875C2.39062 1.28906 4.08594 0.25 6 0.25C7.85938 0.25 9.55469 1.28906 10.5391 2.875C11.4688 4.51562 11.4688 6.53906 10.5391 8.125C9.55469 9.76562 7.85938 10.75 6 10.75ZM6 24.75C4.08594 24.75 2.39062 23.7656 1.40625 22.125C0.476562 20.5391 0.476562 18.5156 1.40625 16.875C2.39062 15.2891 4.08594 14.25 6 14.25C7.85938 14.25 9.55469 15.2891 10.5391 16.875C11.4688 18.5156 11.4688 20.5391 10.5391 22.125C9.55469 23.7656 7.85938 24.75 6 24.75ZM25.25 5.5C25.25 7.41406 24.2109 9.10938 22.625 10.0938C20.9844 11.0234 18.9609 11.0234 17.375 10.0938C15.7344 9.10938 14.75 7.41406 14.75 5.5C14.75 3.64062 15.7344 1.94531 17.375 0.960938C18.9609 0.03125 20.9844 0.03125 22.625 0.960938C24.2109 1.94531 25.25 3.64062 25.25 5.5ZM20 13.375C20.7109 13.375 21.3125 13.9766 21.3125 14.6875V18.1875H24.8125C25.5234 18.1875 26.125 18.7891 26.125 19.5C26.125 20.2656 25.5234 20.8125 24.8125 20.8125H21.3125V24.3125C21.3125 25.0781 20.7109 25.625 20 25.625C19.2344 25.625 18.6875 25.0781 18.6875 24.3125V20.8125H15.1875C14.4219 20.8125 13.875 20.2656 13.875 19.5C13.875 18.7891 14.4219 18.1875 15.1875 18.1875H18.6875V14.6875C18.6875 13.9766 19.2344 13.375 20 13.375Z" fill="#21AF27"/>
</svg>
