<svg width="35" height="37" viewBox="0 0 35 37" fill="none" xmlns="http://www.w3.org/2000/svg">
<path d="M0 5C0 2.53906 1.96875 0.5 4.5 0.5H15.75V9.5C15.75 10.7656 16.7344 11.75 18 11.75H27V21.875H12.375C9.84375 21.875 7.875 23.9141 7.875 26.375V36.5H4.5C1.96875 36.5 0 34.5312 0 32V5ZM27 9.5H18V0.5L27 9.5ZM12.375 25.25H14.625C16.7344 25.25 18.5625 27.0781 18.5625 29.1875C18.5625 31.3672 16.7344 33.125 14.625 33.125H13.5V35.375C13.5 36.0078 12.9375 36.5 12.375 36.5C11.7422 36.5 11.25 36.0078 11.25 35.375V32V26.375C11.25 25.8125 11.7422 25.25 12.375 25.25ZM14.625 30.875C15.5391 30.875 16.3125 30.1719 16.3125 29.1875C16.3125 28.2734 15.5391 27.5 14.625 27.5H13.5V30.875H14.625ZM21.375 25.25H23.625C25.4531 25.25 27 26.7969 27 28.625V33.125C27 35.0234 25.4531 36.5 23.625 36.5H21.375C20.7422 36.5 20.25 36.0078 20.25 35.375V26.375C20.25 25.8125 20.7422 25.25 21.375 25.25ZM23.625 34.25C24.1875 34.25 24.75 33.7578 24.75 33.125V28.625C24.75 28.0625 24.1875 27.5 23.625 27.5H22.5V34.25H23.625ZM29.25 26.375C29.25 25.8125 29.7422 25.25 30.375 25.25H33.75C34.3125 25.25 34.875 25.8125 34.875 26.375C34.875 27.0078 34.3125 27.5 33.75 27.5H31.5V29.75H33.75C34.3125 29.75 34.875 30.3125 34.875 30.875C34.875 31.5078 34.3125 32 33.75 32H31.5V35.375C31.5 36.0078 30.9375 36.5 30.375 36.5C29.7422 36.5 29.25 36.0078 29.25 35.375V30.875V26.375Z" fill="#D3D3D3"/>
</svg>
