<svg width="145" height="153" viewBox="0 0 145 153" fill="none" xmlns="http://www.w3.org/2000/svg">
<g clip-path="url(#clip0_2477_30)">
<path d="M64.4101 151.224C25.0236 132.47 8.43255 96.5686 2.6394 67.3282H72.3971V153C69.689 153 66.9467 152.385 64.4444 151.19L64.4101 151.224ZM72.4999 0H72.6028C73.9739 0 75.3794 0.307435 76.6477 0.888145L133.448 24.9022C140.098 27.7033 145.034 34.2277 145 42.0844C145 49.292 144.212 57.9685 142.36 67.3282H72.6028V0H72.1914H72.5342H72.4999Z" fill="#AAB0BC"/>
<g opacity="0.4">
<path d="M142.361 67.3282H72.6028V153C75.3109 153 78.0532 152.385 80.5556 151.19C119.942 132.436 136.567 96.5345 142.361 67.294V67.3282ZM72.3972 0C71.026 0 69.6206 0.307435 68.3522 0.888145L11.552 24.9022C4.90189 27.6691 0 34.1936 0 42.0844C0 49.292 0.788416 57.9685 2.63948 67.3282H72.3972V0Z" fill="#AAB0BC"/>
</g>
</g>
<defs>
<clipPath id="clip0_2477_30">
<rect width="145" height="153" fill="white"/>
</clipPath>
</defs>
</svg>
