<svg version="1.2" xmlns="http://www.w3.org/2000/svg" viewBox="0 0 145 153" width="145" height="153">
	<title>shield</title>
	<defs>
		<clipPath clipPathUnits="userSpaceOnUse" id="cp1">
			<path d="m0 0h145v153h-145z"/>
		</clipPath>
	</defs>
	<style>
		.s0 { fill: #aab0bc } 
	</style>
	<filter id="f0">
		<feFlood flood-color="#21af27" flood-opacity="1" />
		<feBlend mode="normal" in2="SourceGraphic"/>
		<feComposite in2="SourceAlpha" operator="in" />
	</filter>
	<g id="Clip-Path" clip-path="url(#cp1)" filter="url(#f0)">
		<g>
			<path class="s0" d="m64.4 151.2c-39.4-18.7-56-54.6-61.8-83.9h69.8v85.7c-2.7 0-5.5-0.6-8-1.8zm8.1-151.2h0.1c1.4 0 2.8 0.3 4.1 0.9l56.8 24c6.6 2.8 11.6 9.3 11.5 17.2 0 7.2-0.8 15.8-2.6 25.2h-69.8v-67.3h-0.4 0.4z"/>
			<g style="opacity: .4">
				<path class="s0" d="m142.4 67.3h-69.8v85.7c2.7 0 5.5-0.6 8-1.8 39.3-18.8 56-54.7 61.8-83.9zm-70-67.3c-1.4 0-2.8 0.3-4 0.9l-56.8 24c-6.7 2.7-11.6 9.3-11.6 17.2 0 7.2 0.8 15.8 2.6 25.2h69.8z"/>
			</g>
		</g>
	</g>
</svg>