<svg width="40" height="40" viewBox="0 0 40 40" fill="none" xmlns="http://www.w3.org/2000/svg">
<circle cx="20" cy="20" r="20" fill="#202020"/>
<path d="M21.4062 14.0938C21.75 14.25 22 14.625 22 15V27C22 27.4062 21.75 27.75 21.4062 27.9375C21.0312 28.0938 20.625 28.0312 20.3125 27.75L16.0938 24H14C12.875 24 12 23.125 12 22V20C12 18.9062 12.875 18 14 18H16.0938L20.3125 14.2812C20.625 14 21.0312 13.9375 21.4062 14.0938ZM26.7812 16.3438C28.125 17.4688 29 19.125 29 21C29 22.9062 28.125 24.5625 26.7812 25.6562C26.4375 25.9375 25.9688 25.875 25.7188 25.5625C25.4375 25.25 25.5 24.7812 25.8125 24.5C26.8438 23.6875 27.5 22.4375 27.5 21C27.5 19.5938 26.8438 18.3438 25.8125 17.5312C25.5 17.25 25.4688 16.7812 25.7188 16.4688C25.9688 16.1562 26.4375 16.0938 26.7812 16.3438ZM24.875 18.6875C25.5625 19.25 26 20.0625 26 21C26 21.9688 25.5625 22.7812 24.875 23.3438C24.5625 23.5938 24.0938 23.5625 23.8125 23.2188C23.5625 22.9062 23.625 22.4375 23.9375 22.1875C24.2812 21.9062 24.5 21.4688 24.5 21C24.5 20.5312 24.2812 20.125 23.9375 19.8438C23.625 19.5938 23.5625 19.125 23.8125 18.7812C24.0938 18.4688 24.5625 18.4375 24.875 18.6875Z" fill="white"/>
</svg>
