<svg width="167" height="134" viewBox="0 0 167 134" fill="none" xmlns="http://www.w3.org/2000/svg">
<g clip-path="url(#clip0_2477_8)">
<path d="M68.182 92.1194C48.9641 92.1194 33.394 107.735 33.394 127.01C33.394 130.847 36.5081 134 40.3635 134H126.636C130.462 134 133.606 130.877 133.606 127.01C133.606 107.735 118.036 92.1194 98.8179 92.1194H68.182ZM83.4851 83.7314C97.3054 83.7314 108.546 72.4879 108.546 58.5971C108.546 44.7063 97.3351 33.4628 83.4851 33.4628C69.6352 33.4628 58.4248 44.7063 58.4248 58.5971C58.4248 72.4879 69.6352 83.7314 83.4851 83.7314Z" fill="#AAB0BC"/>
<g opacity="0.4">
<path d="M105.609 83.7612H161.454C164.538 83.7612 167 81.2626 167 78.1989C167 62.7911 154.514 50.2686 139.152 50.2686H128.03C123.878 50.2686 119.934 51.1907 116.405 52.7969C116.731 54.6708 116.909 56.634 116.909 58.6269C116.909 68.6211 112.52 77.604 105.609 83.7612ZM27.8482 50.2686C12.4857 50.2686 0 62.7911 0 78.1989C0 81.2626 2.49121 83.7612 5.54591 83.7612H61.4202C54.4804 77.604 50.1208 68.6211 50.1208 58.6269C50.1208 56.634 50.2987 54.7006 50.6249 52.7969C47.0661 51.1609 43.1216 50.2686 38.9993 50.2686H27.8482ZM154.485 20.9403C154.485 9.36959 145.143 0 133.606 0C122.069 0 112.727 9.36959 112.727 20.9403C112.727 32.511 122.069 41.8806 133.606 41.8806C145.143 41.8806 154.485 32.511 154.485 20.9403ZM58.4544 20.9403C58.4544 9.36959 49.1124 0 37.5757 0C26.0391 0 16.697 9.36959 16.697 20.9403C16.697 32.511 26.0391 41.8806 37.5757 41.8806C49.1124 41.8806 58.4544 32.511 58.4544 20.9403Z" fill="#AAB0BC"/>
</g>
</g>
<defs>
<clipPath id="clip0_2477_8">
<rect width="167" height="134" fill="white"/>
</clipPath>
</defs>
</svg>
