<svg width="14" height="9" viewBox="0 0 14 9" fill="none" xmlns="http://www.w3.org/2000/svg">
<path d="M12.8672 1.42969C13.1484 2.41406 13.1484 4.52344 13.1484 4.52344C13.1484 4.52344 13.1484 6.60938 12.8672 7.61719C12.7266 8.17969 12.2812 8.60156 11.7422 8.74219C10.7344 9 6.75 9 6.75 9C6.75 9 2.74219 9 1.73438 8.74219C1.19531 8.60156 0.75 8.17969 0.609375 7.61719C0.328125 6.60938 0.328125 4.52344 0.328125 4.52344C0.328125 4.52344 0.328125 2.41406 0.609375 1.42969C0.75 0.867188 1.19531 0.421875 1.73438 0.28125C2.74219 0 6.75 0 6.75 0C6.75 0 10.7344 0 11.7422 0.28125C12.2812 0.421875 12.7266 0.867188 12.8672 1.42969ZM5.4375 6.42188L8.76562 4.52344L5.4375 2.625V6.42188Z" fill="#60697B"/>
</svg>
